<?xml version="1.0" encoding="UTF-8"?>
<svg xmlns="http://www.w3.org/2000/svg" xmlns:xlink="http://www.w3.org/1999/xlink" width="1800" height="1200" viewBox="0 0 1800 1200">
  <defs>
    <!-- Background gradients -->
    <radialGradient id="libraryGradient" cx="50%" cy="30%" r="70%">
      <stop offset="0%" style="stop-color:#FEF3C7;stop-opacity:1" />
      <stop offset="50%" style="stop-color:#F59E0B;stop-opacity:0.8" />
      <stop offset="100%" style="stop-color:#92400E;stop-opacity:0.6" />
    </radialGradient>
    
    <linearGradient id="readingRoomGradient" x1="0%" y1="0%" x2="100%" y2="100%">
      <stop offset="0%" style="stop-color:#FFF7ED;stop-opacity:1" />
      <stop offset="50%" style="stop-color:#FDBA74;stop-opacity:0.8" />
      <stop offset="100%" style="stop-color:#EA580C;stop-opacity:0.6" />
    </linearGradient>
    
    <linearGradient id="forestGradient" x1="0%" y1="0%" x2="100%" y2="100%">
      <stop offset="0%" style="stop-color:#ECFDF5;stop-opacity:1" />
      <stop offset="50%" style="stop-color:#6EE7B7;stop-opacity:0.8" />
      <stop offset="100%" style="stop-color:#047857;stop-opacity:0.7" />
    </linearGradient>
    
    <radialGradient id="caveGradient" cx="50%" cy="50%" r="60%">
      <stop offset="0%" style="stop-color:#FCD34D;stop-opacity:0.9" />
      <stop offset="50%" style="stop-color:#F59E0B;stop-opacity:0.7" />
      <stop offset="100%" style="stop-color:#451A03;stop-opacity:0.8" />
    </radialGradient>
    
    <radialGradient id="towerGradient" cx="50%" cy="50%" r="80%">
      <stop offset="0%" style="stop-color:#1E1B4B;stop-opacity:1" />
      <stop offset="50%" style="stop-color:#312E81;stop-opacity:0.9" />
      <stop offset="100%" style="stop-color:#0F0A19;stop-opacity:1" />
    </radialGradient>
    
    <linearGradient id="cloudGradient" x1="0%" y1="0%" x2="100%" y2="100%">
      <stop offset="0%" style="stop-color:#DBEAFE;stop-opacity:1" />
      <stop offset="50%" style="stop-color:#93C5FD;stop-opacity:0.8" />
      <stop offset="100%" style="stop-color:#1E40AF;stop-opacity:0.6" />
    </linearGradient>
    
    <!-- Animated elements -->
    <g id="floatingBook">
      <rect x="-8" y="-10" width="16" height="20" fill="#8B4513" stroke="#654321" stroke-width="1" rx="2"/>
      <rect x="-6" y="-8" width="12" height="16" fill="#F3F4F6"/>
      <line x1="-4" y1="-5" x2="4" y2="-5" stroke="#6B7280" stroke-width="1"/>
      <line x1="-4" y1="-2" x2="4" y2="-2" stroke="#6B7280" stroke-width="1"/>
      <line x1="-4" y1="1" x2="4" y2="1" stroke="#6B7280" stroke-width="1"/>
      <animateTransform attributeName="transform" type="rotate" values="0;10;-10;0" dur="4s" repeatCount="indefinite"/>
      <animateTransform attributeName="transform" type="translate" values="0,0; 0,-15; 0,0" dur="3s" additive="sum" repeatCount="indefinite"/>
    </g>
    
    <g id="magicSparkle">
      <path d="M0,-4 L1.5,-1.5 L4,0 L1.5,1.5 L0,4 L-1.5,1.5 L-4,0 L-1.5,-1.5 Z" fill="#FCD34D" opacity="0.8">
        <animateTransform attributeName="transform" type="rotate" values="0;360" dur="3s" repeatCount="indefinite"/>
        <animate attributeName="opacity" values="0.3;1;0.3" dur="2s" repeatCount="indefinite"/>
      </path>
    </g>
    
    <g id="firefly">
      <circle cx="0" cy="0" r="2" fill="#FBBF24">
        <animate attributeName="opacity" values="0.3;1;0.3" dur="2s" repeatCount="indefinite"/>
      </circle>
      <animateTransform attributeName="transform" type="translate" values="0,0; 20,-10; -10,15; 0,0" dur="8s" repeatCount="indefinite"/>
    </g>
    
    <g id="crystal">
      <path d="M0,-8 L4,-2 L4,6 L0,10 L-4,6 L-4,-2 Z" fill="#A78BFA" stroke="#8B5CF6" stroke-width="1" opacity="0.8">
        <animate attributeName="fill" values="#A78BFA;#C4B5FD;#A78BFA" dur="3s" repeatCount="indefinite"/>
      </path>
    </g>
  </defs>
  
  <!-- Library Entrance -->
  <g id="library-entrance" transform="translate(0,0)">
    <rect width="600" height="400" fill="url(#libraryGradient)"/>
    
    <!-- Grand building structure -->
    <rect x="50" y="150" width="500" height="200" fill="#D1D5DB" stroke="#6B7280" stroke-width="3"/>
    <rect x="80" y="180" width="440" height="170" fill="#F3F4F6"/>
    
    <!-- Columns -->
    <rect x="120" y="180" width="30" height="170" fill="#E5E7EB" stroke="#9CA3AF" stroke-width="2"/>
    <rect x="180" y="180" width="30" height="170" fill="#E5E7EB" stroke="#9CA3AF" stroke-width="2"/>
    <rect x="240" y="180" width="30" height="170" fill="#E5E7EB" stroke="#9CA3AF" stroke-width="2"/>
    <rect x="390" y="180" width="30" height="170" fill="#E5E7EB" stroke="#9CA3AF" stroke-width="2"/>
    <rect x="450" y="180" width="30" height="170" fill="#E5E7EB" stroke="#9CA3AF" stroke-width="2"/>
    
    <!-- Magical doorway -->
    <rect x="280" y="250" width="80" height="100" fill="#8B5CF6" stroke="#5B21B6" stroke-width="3" rx="40">
      <animate attributeName="fill" values="#8B5CF6;#A78BFA;#8B5CF6" dur="4s" repeatCount="indefinite"/>
    </rect>
    
    <!-- Door handles -->
    <circle cx="295" cy="300" r="3" fill="#FFD700"/>
    <circle cx="345" cy="300" r="3" fill="#FFD700"/>
    
    <!-- Steps -->
    <rect x="260" y="340" width="120" height="10" fill="#9CA3AF"/>
    <rect x="250" y="350" width="140" height="10" fill="#9CA3AF"/>
    <rect x="240" y="360" width="160" height="10" fill="#9CA3AF"/>
    
    <!-- Roof -->
    <path d="M30,150 L300,80 L570,150 Z" fill="#7C2D12" stroke="#92400E" stroke-width="2"/>
    
    <!-- Windows -->
    <rect x="150" y="200" width="40" height="60" fill="#DBEAFE" stroke="#3B82F6" stroke-width="2"/>
    <rect x="350" y="200" width="40" height="60" fill="#DBEAFE" stroke="#3B82F6" stroke-width="2"/>
    <line x1="170" y1="200" x2="170" y2="260" stroke="#3B82F6" stroke-width="1"/>
    <line x1="150" y1="230" x2="190" y2="230" stroke="#3B82F6" stroke-width="1"/>
    <line x1="370" y1="200" x2="370" y2="260" stroke="#3B82F6" stroke-width="1"/>
    <line x1="350" y1="230" x2="390" y2="230" stroke="#3B82F6" stroke-width="1"/>
    
    <!-- Magic effects around door -->
    <use xlink:href="#magicSparkle" x="250" y="280"/>
    <use xlink:href="#magicSparkle" x="390" y="270"/>
    <use xlink:href="#magicSparkle" x="320" y="230"/>
    
    <!-- Title -->
    <text x="300" y="50" text-anchor="middle" font-family="serif" font-size="24" font-weight="bold" fill="#8B5CF6">Enchanted Library</text>
  </g>
  
  <!-- Magical Reading Room -->
  <g id="reading-room" transform="translate(600,0)">
    <rect width="600" height="400" fill="url(#readingRoomGradient)"/>
    
    <!-- Bookshelves -->
    <rect x="50" y="100" width="80" height="250" fill="#7C2D12" stroke="#92400E" stroke-width="2"/>
    <rect x="470" y="100" width="80" height="250" fill="#7C2D12" stroke="#92400E" stroke-width="2"/>
    
    <!-- Books on shelves -->
    <g id="leftShelf">
      <rect x="55" y="110" width="8" height="25" fill="#EF4444"/>
      <rect x="65" y="110" width="12" height="25" fill="#3B82F6"/>
      <rect x="80" y="110" width="6" height="25" fill="#10B981"/>
      <rect x="90" y="110" width="10" height="25" fill="#F59E0B"/>
      <rect x="105" y="110" width="15" height="25" fill="#8B5CF6"/>
      
      <rect x="55" y="150" width="10" height="25" fill="#EC4899"/>
      <rect x="68" y="150" width="8" height="25" fill="#06B6D4"/>
      <rect x="78" y="150" width="14" height="25" fill="#84CC16"/>
      <rect x="95" y="150" width="12" height="25" fill="#F97316"/>
      <rect x="110" y="150" width="9" height="25" fill="#6366F1"/>
    </g>
    
    <g id="rightShelf">
      <rect x="475" y="110" width="10" height="25" fill="#DC2626"/>
      <rect x="488" y="110" width="8" height="25" fill="#1E40AF"/>
      <rect x="498" y="110" width="12" height="25" fill="#059669"/>
      <rect x="512" y="110" width="15" height="25" fill="#D97706"/>
      <rect x="530" y="110" width="9" height="25" fill="#7C3AED"/>
      
      <rect x="475" y="150" width="12" height="25" fill="#BE185D"/>
      <rect x="490" y="150" width="10" height="25" fill="#0891B2"/>
      <rect x="502" y="150" width="8" height="25" fill="#65A30D"/>
      <rect x="512" y="150" width="14" height="25" fill="#EA580C"/>
      <rect x="528" y="150" width="11" height="25" fill="#5B21B6"/>
    </g>
    
    <!-- Floating books -->
    <use xlink:href="#floatingBook" x="200" y="150"/>
    <use xlink:href="#floatingBook" x="350" y="180"/>
    <use xlink:href="#floatingBook" x="400" y="120"/>
    
    <!-- Reading area -->
    <ellipse cx="300" cy="280" rx="100" ry="40" fill="#FEF3C7" stroke="#F59E0B" stroke-width="2" opacity="0.7"/>
    
    <!-- Comfortable chairs -->
    <rect x="220" y="250" width="40" height="50" fill="#8B4513" stroke="#654321" stroke-width="2" rx="5"/>
    <rect x="340" y="250" width="40" height="50" fill="#8B4513" stroke="#654321" stroke-width="2" rx="5"/>
    
    <!-- Warm lighting -->
    <circle cx="300" cy="80" r="30" fill="#FBBF24" opacity="0.6">
      <animate attributeName="opacity" values="0.4;0.8;0.4" dur="3s" repeatCount="indefinite"/>
    </circle>
    
    <!-- Light rays -->
    <path d="M300,110 L280,200 L320,200 Z" fill="#FEF3C7" opacity="0.3"/>
    
    <!-- Magic sparkles -->
    <use xlink:href="#magicSparkle" x="150" y="180"/>
    <use xlink:href="#magicSparkle" x="450" y="160"/>
    <use xlink:href="#magicSparkle" x="300" y="200"/>
    
    <!-- Title -->
    <text x="300" y="30" text-anchor="middle" font-family="serif" font-size="18" font-weight="bold" fill="#92400E">Magical Reading Room</text>
  </g>
  
  <!-- Enchanted Forest Path -->
  <g id="forest-path" transform="translate(1200,0)">
    <rect width="600" height="400" fill="url(#forestGradient)"/>
    
    <!-- Tree trunks -->
    <rect x="50" y="200" width="25" height="150" fill="#8B4513"/>
    <rect x="150" y="180" width="30" height="170" fill="#8B4513"/>
    <rect x="450" y="190" width="35" height="160" fill="#8B4513"/>
    <rect x="520" y="170" width="28" height="180" fill="#8B4513"/>
    
    <!-- Tree canopies -->
    <circle cx="62" cy="200" r="40" fill="#22C55E"/>
    <circle cx="165" cy="180" r="50" fill="#16A34A"/>
    <circle cx="467" cy="190" r="55" fill="#22C55E"/>
    <circle cx="534" cy="170" r="45" fill="#16A34A"/>
    
    <!-- Forest path -->
    <path d="M0,350 Q150,320 300,330 Q450,340 600,350 L600,400 L0,400 Z" fill="#A3A3A3" stroke="#525252" stroke-width="2"/>
    
    <!-- Glowing mushrooms -->
    <g id="mushroom1" transform="translate(100,320)">
      <ellipse cx="0" cy="5" rx="8" ry="4" fill="#F59E0B"/>
      <rect x="-2" y="5" width="4" height="15" fill="#FEF3C7"/>
      <circle cx="0" cy="0" r="10" fill="#EF4444" opacity="0.8">
        <animate attributeName="opacity" values="0.5;1;0.5" dur="2s" repeatCount="indefinite"/>
      </circle>
    </g>
    
    <g id="mushroom2" transform="translate(380,330)">
      <ellipse cx="0" cy="5" rx="6" ry="3" fill="#8B5CF6"/>
      <rect x="-1.5" y="5" width="3" height="12" fill="#FEF3C7"/>
      <circle cx="0" cy="0" r="8" fill="#A78BFA" opacity="0.8">
        <animate attributeName="opacity" values="0.5;1;0.5" dur="2.5s" repeatCount="indefinite"/>
      </circle>
    </g>
    
    <g id="mushroom3" transform="translate(250,325)">
      <ellipse cx="0" cy="5" rx="7" ry="3.5" fill="#10B981"/>
      <rect x="-2" y="5" width="4" height="10" fill="#FEF3C7"/>
      <circle cx="0" cy="0" r="9" fill="#34D399" opacity="0.8">
        <animate attributeName="opacity" values="0.5;1;0.5" dur="1.8s" repeatCount="indefinite"/>
      </circle>
    </g>
    
    <!-- Fireflies -->
    <use xlink:href="#firefly" x="200" y="150"/>
    <use xlink:href="#firefly" x="350" y="180"/>
    <use xlink:href="#firefly" x="500" y="160"/>
    <use xlink:href="#firefly" x="120" y="220"/>
    <use xlink:href="#firefly" x="480" y="240"/>
    
    <!-- Magical fog -->
    <ellipse cx="300" cy="350" rx="200" ry="30" fill="#E5E7EB" opacity="0.4">
      <animate attributeName="opacity" values="0.2;0.6;0.2" dur="4s" repeatCount="indefinite"/>
    </ellipse>
    
    <!-- Title -->
    <text x="300" y="30" text-anchor="middle" font-family="serif" font-size="18" font-weight="bold" fill="#047857">Enchanted Forest</text>
  </g>
  
  <!-- Dragon's Cave -->
  <g id="dragons-cave" transform="translate(0,400)">
    <rect width="600" height="400" fill="url(#caveGradient)"/>
    
    <!-- Cave walls -->
    <path d="M0,0 Q100,50 200,0 Q300,30 400,0 Q500,40 600,0 L600,400 L0,400 Z" fill="#7C2D12" opacity="0.8"/>
    <path d="M0,350 Q150,320 300,340 Q450,360 600,350 L600,400 L0,400 Z" fill="#92400E" opacity="0.6"/>
    
    <!-- Treasure piles -->
    <g id="treasurePile1" transform="translate(150,300)">
      <ellipse cx="0" cy="15" rx="30" ry="10" fill="#DAA520"/>
      <!-- Gold coins -->
      <circle cx="-15" cy="0" r="6" fill="#FFD700" stroke="#DAA520" stroke-width="1"/>
      <circle cx="10" cy="-5" r="5" fill="#FFD700" stroke="#DAA520" stroke-width="1"/>
      <circle cx="0" cy="5" r="7" fill="#FFD700" stroke="#DAA520" stroke-width="1"/>
      <circle cx="20" cy="8" r="4" fill="#FFD700" stroke="#DAA520" stroke-width="1"/>
      <circle cx="-8" cy="12" r="5" fill="#FFD700" stroke="#DAA520" stroke-width="1"/>
    </g>
    
    <g id="treasurePile2" transform="translate(400,320)">
      <ellipse cx="0" cy="10" rx="25" ry="8" fill="#DAA520"/>
      <!-- Gems -->
      <path d="M-10,-5 L-6,-10 L-2,-5 L-2,2 L-10,2 Z" fill="#DC2626" stroke="#B91C1C" stroke-width="1"/>
      <path d="M5,-8 L10,-12 L15,-8 L15,0 L5,0 Z" fill="#2563EB" stroke="#1D4ED8" stroke-width="1"/>
      <path d="M-20,0 L-16,-6 L-10,0 L-10,5 L-20,5 Z" fill="#16A34A" stroke="#15803D" stroke-width="1"/>
      <path d="M18,2 L22,-3 L26,2 L26,8 L18,8 Z" fill="#7C3AED" stroke="#6D28D9" stroke-width="1"/>
    </g>
    
    <!-- Crystals -->
    <use xlink:href="#crystal" x="100" y="250" transform="scale(1.5)"/>
    <use xlink:href="#crystal" x="300" y="280" transform="scale(1.2)"/>
    <use xlink:href="#crystal" x="500" y="260" transform="scale(1.8)"/>
    
    <!-- Cave stalactites -->
    <path d="M80,0 L85,50 L90,0" fill="#6B7280"/>
    <path d="M200,0 L208,70 L216,0" fill="#6B7280"/>
    <path d="M350,0 L356,45 L362,0" fill="#6B7280"/>
    <path d="M480,0 L488,60 L496,0" fill="#6B7280"/>
    
    <!-- Magical glow from treasures -->
    <circle cx="150" cy="300" r="40" fill="#FBBF24" opacity="0.2">
      <animate attributeName="r" values="35;50;35" dur="3s" repeatCount="indefinite"/>
    </circle>
    <circle cx="400" cy="320" r="35" fill="#8B5CF6" opacity="0.2">
      <animate attributeName="r" values="30;45;30" dur="3.5s" repeatCount="indefinite"/>
    </circle>
    
    <!-- Title -->
    <text x="300" y="50" text-anchor="middle" font-family="serif" font-size="18" font-weight="bold" fill="#FBBF24">Dragon's Treasure Cave</text>
  </g>
  
  <!-- Wizard's Tower -->
  <g id="wizards-tower" transform="translate(600,400)">
    <rect width="600" height="400" fill="url(#towerGradient)"/>
    
    <!-- Night sky with stars -->
    <circle cx="100" cy="80" r="2" fill="#FBBF24">
      <animate attributeName="opacity" values="0.3;1;0.3" dur="2s" repeatCount="indefinite"/>
    </circle>
    <circle cx="200" cy="60" r="1.5" fill="#FBBF24">
      <animate attributeName="opacity" values="0.5;1;0.5" dur="2.5s" repeatCount="indefinite"/>
    </circle>
    <circle cx="450" cy="70" r="2" fill="#FBBF24">
      <animate attributeName="opacity" values="0.4;1;0.4" dur="1.8s" repeatCount="indefinite"/>
    </circle>
    <circle cx="520" cy="90" r="1" fill="#FBBF24">
      <animate attributeName="opacity" values="0.6;1;0.6" dur="3s" repeatCount="indefinite"/>
    </circle>
    
    <!-- Moon -->
    <circle cx="500" cy="120" r="25" fill="#F3F4F6" opacity="0.9"/>
    <circle cx="495" cy="115" r="3" fill="#E5E7EB"/>
    <circle cx="510" cy="125" r="2" fill="#E5E7EB"/>
    <circle cx="505" cy="135" r="1.5" fill="#E5E7EB"/>
    
    <!-- Tower structure -->
    <rect x="250" y="150" width="100" height="250" fill="#6B7280" stroke="#374151" stroke-width="3"/>
    <circle cx="300" cy="150" r="50" fill="#6B7280" stroke="#374151" stroke-width="3"/>
    
    <!-- Tower windows -->
    <rect x="270" y="180" width="20" height="30" fill="#FBBF24" stroke="#F59E0B" stroke-width="2">
      <animate attributeName="fill" values="#FBBF24;#FEF3C7;#FBBF24" dur="3s" repeatCount="indefinite"/>
    </rect>
    <rect x="310" y="180" width="20" height="30" fill="#FBBF24" stroke="#F59E0B" stroke-width="2">
      <animate attributeName="fill" values="#FEF3C7;#FBBF24;#FEF3C7" dur="3s" repeatCount="indefinite"/>
    </rect>
    <rect x="290" y="250" width="20" height="30" fill="#FBBF24" stroke="#F59E0B" stroke-width="2">
      <animate attributeName="fill" values="#FBBF24;#FEF3C7;#FBBF24" dur="3.5s" repeatCount="indefinite"/>
    </rect>
    <rect x="290" y="320" width="20" height="30" fill="#FBBF24" stroke="#F59E0B" stroke-width="2">
      <animate attributeName="fill" values="#FEF3C7;#FBBF24;#FEF3C7" dur="2.5s" repeatCount="indefinite"/>
    </rect>
    
    <!-- Tower roof -->
    <path d="M250,150 L300,100 L350,150 Z" fill="#7C2D12" stroke="#92400E" stroke-width="2"/>
    
    <!-- Floating magical objects -->
    <g id="floatingCrystal1" transform="translate(150,200)">
      <use xlink:href="#crystal" transform="scale(0.8)"/>
      <animateTransform attributeName="transform" type="translate" values="150,200; 170,190; 150,200" dur="4s" repeatCount="indefinite"/>
    </g>
    
    <g id="floatingCrystal2" transform="translate(450,250)">
      <use xlink:href="#crystal" transform="scale(1.2)"/>
      <animateTransform attributeName="transform" type="translate" values="450,250; 430,240; 450,250" dur="3.5s" repeatCount="indefinite"/>
    </g>
    
    <!-- Floating potion bottles -->
    <g id="potion1" transform="translate(180,300)">
      <ellipse cx="0" cy="5" rx="4" ry="8" fill="#8B5CF6" opacity="0.8"/>
      <rect x="-3" y="-5" width="6" height="5" fill="#A78BFA"/>
      <circle cx="0" cy="-7" r="2" fill="#6B7280"/>
      <animateTransform attributeName="transform" type="translate" values="180,300; 190,280; 180,300" dur="5s" repeatCount="indefinite"/>
    </g>
    
    <g id="potion2" transform="translate(420,180)">
      <ellipse cx="0" cy="5" rx="3" ry="6" fill="#10B981" opacity="0.8"/>
      <rect x="-2" y="-3" width="4" height="4" fill="#34D399"/>
      <circle cx="0" cy="-5" r="1.5" fill="#6B7280"/>
      <animateTransform attributeName="transform" type="translate" values="420,180; 410,200; 420,180" dur="4.5s" repeatCount="indefinite"/>
    </g>
    
    <!-- Magic sparkles -->
    <use xlink:href="#magicSparkle" x="120" y="160"/>
    <use xlink:href="#magicSparkle" x="380" y="140"/>
    <use xlink:href="#magicSparkle" x="480" y="300"/>
    <use xlink:href="#magicSparkle" x="100" y="350"/>
    
    <!-- Title -->
    <text x="300" y="50" text-anchor="middle" font-family="serif" font-size="18" font-weight="bold" fill="#A78BFA">Wizard's Tower</text>
  </g>
  
  <!-- Cloud Kingdom -->
  <g id="cloud-kingdom" transform="translate(1200,400)">
    <rect width="600" height="400" fill="url(#cloudGradient)"/>
    
    <!-- Fluffy clouds -->
    <g id="cloudBase" opacity="0.8">
      <circle cx="100" cy="300" r="30" fill="#FFFFFF"/>
      <circle cx="130" cy="300" r="35" fill="#FFFFFF"/>
      <circle cx="160" cy="300" r="30" fill="#FFFFFF"/>
      <circle cx="115" cy="285" r="25" fill="#FFFFFF"/>
      <circle cx="145" cy="285" r="28" fill="#FFFFFF"/>
    </g>
    
    <g id="cloudBase2" opacity="0.8">
      <circle cx="400" cy="320" r="35" fill="#FFFFFF"/>
      <circle cx="435" cy="320" r="40" fill="#FFFFFF"/>
      <circle cx="470" cy="320" r="35" fill="#FFFFFF"/>
      <circle cx="417" cy="300" r="30" fill="#FFFFFF"/>
      <circle cx="452" cy="300" r="32" fill="#FFFFFF"/>
    </g>
    
    <!-- Rainbow bridge -->
    <path d="M180,300 Q300,250 420,300" stroke="#EF4444" stroke-width="8" fill="none" opacity="0.8"/>
    <path d="M180,305 Q300,255 420,305" stroke="#F97316" stroke-width="8" fill="none" opacity="0.8"/>
    <path d="M180,310 Q300,260 420,310" stroke="#FBBF24" stroke-width="8" fill="none" opacity="0.8"/>
    <path d="M180,315 Q300,265 420,315" stroke="#22C55E" stroke-width="8" fill="none" opacity="0.8"/>
    <path d="M180,320 Q300,270 420,320" stroke="#3B82F6" stroke-width="8" fill="none" opacity="0.8"/>
    <path d="M180,325 Q300,275 420,325" stroke="#8B5CF6" stroke-width="8" fill="none" opacity="0.8"/>
    
    <!-- Castle in clouds -->
    <g id="skycastle" transform="translate(300,150)">
      <!-- Castle base -->
      <rect x="-50" y="50" width="100" height="80" fill="#E5E7EB" stroke="#9CA3AF" stroke-width="2"/>
      
      <!-- Castle towers -->
      <rect x="-60" y="30" width="20" height="100" fill="#E5E7EB" stroke="#9CA3AF" stroke-width="2"/>
      <rect x="40" y="30" width="20" height="100" fill="#E5E7EB" stroke="#9CA3AF" stroke-width="2"/>
      <rect x="-10" y="20" width="20" height="110" fill="#E5E7EB" stroke="#9CA3AF" stroke-width="2"/>
      
      <!-- Tower roofs -->
      <path d="M-60,30 L-50,10 L-40,30 Z" fill="#DC2626"/>
      <path d="M40,30 L50,10 L60,30 Z" fill="#DC2626"/>
      <path d="M-10,20 L0,0 L10,20 Z" fill="#DC2626"/>
      
      <!-- Castle gate -->
      <rect x="-15" y="90" width="30" height="40" fill="#6B7280" stroke="#374151" stroke-width="2" rx="15"/>
      
      <!-- Windows -->
      <rect x="-55" y="50" width="8" height="12" fill="#DBEAFE"/>
      <rect x="47" y="50" width="8" height="12" fill="#DBEAFE"/>
      <rect x="-5" y="40" width="8" height="12" fill="#DBEAFE"/>
      
      <!-- Flags -->
      <rect x="-47" y="10" width="2" height="20" fill="#8B4513"/>
      <path d="M-45,10 L-35,15 L-45,20 Z" fill="#EF4444"/>
      <rect x="53" y="10" width="2" height="20" fill="#8B4513"/>
      <path d="M55,10 L65,15 L55,20 Z" fill="#3B82F6"/>
      <rect x="3" y="0" width="2" height="20" fill="#8B4513"/>
      <path d="M5,0 L15,5 L5,10 Z" fill="#FBBF24"/>
      
      <!-- Floating animation -->
      <animateTransform attributeName="transform" type="translate" values="300,150; 300,140; 300,150" dur="6s" repeatCount="indefinite"/>
    </g>
    
    <!-- Flying elements -->
    <g id="bird1" transform="translate(150,120)">
      <path d="M0,0 L-8,-2 L-4,0 L-8,2 Z" fill="#FFFFFF" opacity="0.8"/>
      <animateTransform attributeName="transform" type="translate" values="150,120; 450,100; 150,120" dur="12s" repeatCount="indefinite"/>
    </g>
    
    <g id="bird2" transform="translate(500,80)">
      <path d="M0,0 L-6,-1.5 L-3,0 L-6,1.5 Z" fill="#FFFFFF" opacity="0.8"/>
      <animateTransform attributeName="transform" type="translate" values="500,80; 100,90; 500,80" dur="15s" repeatCount="indefinite"/>
    </g>
    
    <!-- Floating sparkles -->
    <use xlink:href="#magicSparkle" x="200" y="200"/>
    <use xlink:href="#magicSparkle" x="400" y="180"/>
    <use xlink:href="#magicSparkle" x="500" y="250"/>
    
    <!-- Title -->
    <text x="300" y="50" text-anchor="middle" font-family="serif" font-size="18" font-weight="bold" fill="#1E40AF">Cloud Kingdom</text>
  </g>
  
  <!-- Decorative border around entire background -->
  <rect x="10" y="10" width="1780" height="1180" fill="none" stroke="#8B5CF6" stroke-width="6" rx="30" opacity="0.4">
    <animate attributeName="stroke-dasharray" values="0,200; 100,100; 200,0; 0,200" dur="12s" repeatCount="indefinite"/>
  </rect>
  
  <!-- Corner decorative elements -->
  <use xlink:href="#magicSparkle" x="40" y="40" transform="scale(1.5)"/>
  <use xlink:href="#magicSparkle" x="1760" y="40" transform="scale(1.5)"/>
  <use xlink:href="#magicSparkle" x="40" y="1160" transform="scale(1.5)"/>
  <use xlink:href="#magicSparkle" x="1760" y="1160" transform="scale(1.5)"/>
</svg>