<?xml version="1.0" encoding="UTF-8"?>
<svg xmlns="http://www.w3.org/2000/svg" xmlns:xlink="http://www.w3.org/1999/xlink" width="1600" height="600" viewBox="0 0 1600 600">
  <defs>
    <!-- Gradients for magical effects -->
    <linearGradient id="owlGradient" x1="0%" y1="0%" x2="100%" y2="100%">
      <stop offset="0%" style="stop-color:#D2691E;stop-opacity:1" />
      <stop offset="50%" style="stop-color:#CD853F;stop-opacity:1" />
      <stop offset="100%" style="stop-color:#F4A460;stop-opacity:1" />
    </linearGradient>
    
    <linearGradient id="dragonGradient" x1="0%" y1="0%" x2="100%" y2="100%">
      <stop offset="0%" style="stop-color:#228B22;stop-opacity:1" />
      <stop offset="50%" style="stop-color:#32CD32;stop-opacity:1" />
      <stop offset="100%" style="stop-color:#90EE90;stop-opacity:1" />
    </linearGradient>
    
    <linearGradient id="wizardGradient" x1="0%" y1="0%" x2="100%" y2="100%">
      <stop offset="0%" style="stop-color:#8B5CF6;stop-opacity:1" />
      <stop offset="50%" style="stop-color:#A78BFA;stop-opacity:1" />
      <stop offset="100%" style="stop-color:#C4B5FD;stop-opacity:1" />
    </linearGradient>
    
    <linearGradient id="mouseGradient" x1="0%" y1="0%" x2="100%" y2="100%">
      <stop offset="0%" style="stop-color:#6B7280;stop-opacity:1" />
      <stop offset="50%" style="stop-color:#9CA3AF;stop-opacity:1" />
      <stop offset="100%" style="stop-color:#D1D5DB;stop-opacity:1" />
    </linearGradient>
    
    <!-- Player avatar gradients -->
    <linearGradient id="skinTone1" x1="0%" y1="0%" x2="100%" y2="100%">
      <stop offset="0%" style="stop-color:#FDBCB4;stop-opacity:1" />
      <stop offset="100%" style="stop-color:#FCA5A5;stop-opacity:1" />
    </linearGradient>
    
    <linearGradient id="skinTone2" x1="0%" y1="0%" x2="100%" y2="100%">
      <stop offset="0%" style="stop-color:#F3B26A;stop-opacity:1" />
      <stop offset="100%" style="stop-color:#EDA055;stop-opacity:1" />
    </linearGradient>
    
    <linearGradient id="skinTone3" x1="0%" y1="0%" x2="100%" y2="100%">
      <stop offset="0%" style="stop-color:#8B4513;stop-opacity:1" />
      <stop offset="100%" style="stop-color:#A0522D;stop-opacity:1" />
    </linearGradient>
    
    <!-- Sparkle animation -->
    <g id="sparkle">
      <path d="M0,-8 L2,-2 L8,0 L2,2 L0,8 L-2,2 L-8,0 L-2,-2 Z" fill="#FCD34D" opacity="0.8">
        <animateTransform attributeName="transform" type="rotate" values="0;360" dur="4s" repeatCount="indefinite"/>
        <animate attributeName="opacity" values="0.3;1;0.3" dur="2s" repeatCount="indefinite"/>
      </path>
    </g>
    
    <!-- Magic wand glow -->
    <filter id="wandGlow">
      <feGaussianBlur stdDeviation="3" result="coloredBlur"/>
      <feMerge> 
        <feMergeNode in="coloredBlur"/>
        <feMergeNode in="SourceGraphic"/>
      </feMerge>
    </filter>
  </defs>
  
  <!-- Owl Guardian (Library Guardian) -->
  <g id="owl-guardian" transform="translate(200,150)">
    <!-- Owl body -->
    <ellipse cx="0" cy="20" rx="45" ry="55" fill="url(#owlGradient)" stroke="#8B4513" stroke-width="2"/>
    
    <!-- Owl head -->
    <circle cx="0" cy="-25" r="40" fill="url(#owlGradient)" stroke="#8B4513" stroke-width="2"/>
    
    <!-- Owl ear tufts -->
    <path d="M-25,-55 L-20,-65 L-15,-55" fill="#8B4513"/>
    <path d="M25,-55 L20,-65 L15,-55" fill="#8B4513"/>
    
    <!-- Owl eyes (large and wise) -->
    <circle cx="-15" cy="-30" r="12" fill="#FFFFFF" stroke="#8B4513" stroke-width="2"/>
    <circle cx="15" cy="-30" r="12" fill="#FFFFFF" stroke="#8B4513" stroke-width="2"/>
    <circle cx="-15" cy="-30" r="8" fill="#4B5563"/>
    <circle cx="15" cy="-30" r="8" fill="#4B5563"/>
    <circle cx="-15" cy="-32" r="3" fill="#FFFFFF"/>
    <circle cx="15" cy="-32" r="3" fill="#FFFFFF"/>
    
    <!-- Glasses -->
    <circle cx="-15" cy="-30" r="18" fill="none" stroke="#374151" stroke-width="3"/>
    <circle cx="15" cy="-30" r="18" fill="none" stroke="#374151" stroke-width="3"/>
    <line x1="3" y1="-30" x2="-3" y2="-30" stroke="#374151" stroke-width="3"/>
    
    <!-- Owl beak -->
    <path d="M0,-15 L-4,-8 L4,-8 Z" fill="#F97316"/>
    
    <!-- Book in wing/claw -->
    <g transform="translate(-35,10) rotate(-15)">
      <rect x="0" y="0" width="20" height="25" fill="#8B4513" stroke="#654321" stroke-width="1" rx="2"/>
      <rect x="2" y="2" width="16" height="21" fill="#F3F4F6"/>
      <line x1="4" y1="6" x2="16" y2="6" stroke="#6B7280" stroke-width="1"/>
      <line x1="4" y1="10" x2="16" y2="10" stroke="#6B7280" stroke-width="1"/>
      <line x1="4" y1="14" x2="16" y2="14" stroke="#6B7280" stroke-width="1"/>
    </g>
    
    <!-- Owl feet -->
    <path d="M-20,70 L-25,80 M-20,70 L-15,80 M-20,70 L-20,80" stroke="#F97316" stroke-width="3" stroke-linecap="round"/>
    <path d="M20,70 L25,80 M20,70 L15,80 M20,70 L20,80" stroke="#F97316" stroke-width="3" stroke-linecap="round"/>
    
    <!-- Floating sparkles around owl -->
    <use xlink:href="#sparkle" x="-60" y="-40" transform="scale(0.6)"/>
    <use xlink:href="#sparkle" x="60" y="-20" transform="scale(0.4)"/>
    <use xlink:href="#sparkle" x="-40" y="60" transform="scale(0.5)"/>
    
    <!-- Floating animation -->
    <animateTransform attributeName="transform" type="translate" values="200,150; 200,145; 200,150" dur="4s" repeatCount="indefinite"/>
    
    <!-- Character label -->
    <text x="0" y="110" text-anchor="middle" font-family="Arial, sans-serif" font-size="14" font-weight="bold" fill="#8B4513">Wise Owl Guardian</text>
    <text x="0" y="125" text-anchor="middle" font-family="Arial, sans-serif" font-size="10" fill="#654321">Keeper of Knowledge</text>
  </g>
  
  <!-- Friendly Green Dragon -->
  <g id="green-dragon" transform="translate(500,150)">
    <!-- Dragon body -->
    <ellipse cx="0" cy="20" rx="55" ry="35" fill="url(#dragonGradient)" stroke="#228B22" stroke-width="3"/>
    
    <!-- Dragon head -->
    <circle cx="0" cy="-20" r="30" fill="url(#dragonGradient)" stroke="#228B22" stroke-width="3"/>
    
    <!-- Dragon wings -->
    <path d="M-40,-15 Q-65,-35 -45,-55 Q-25,-45 -30,-20" fill="#90EE90" stroke="#228B22" stroke-width="2" opacity="0.8">
      <animateTransform attributeName="transform" type="rotate" values="0 -35 -30; -8 -35 -30; 0 -35 -30" dur="2.5s" repeatCount="indefinite"/>
    </path>
    <path d="M40,-15 Q65,-35 45,-55 Q25,-45 30,-20" fill="#90EE90" stroke="#228B22" stroke-width="2" opacity="0.8">
      <animateTransform attributeName="transform" type="rotate" values="0 35 -30; 8 35 -30; 0 35 -30" dur="2.5s" repeatCount="indefinite"/>
    </path>
    
    <!-- Dragon eyes (friendly) -->
    <circle cx="-10" cy="-25" r="5" fill="#FFFFFF"/>
    <circle cx="10" cy="-25" r="5" fill="#FFFFFF"/>
    <circle cx="-10" cy="-25" r="3" fill="#000000"/>
    <circle cx="10" cy="-25" r="3" fill="#000000"/>
    <circle cx="-8" cy="-27" r="1" fill="#FFFFFF"/>
    <circle cx="12" cy="-27" r="1" fill="#FFFFFF"/>
    
    <!-- Dragon smile -->
    <path d="M-12,-5 Q0,5 12,-5" stroke="#228B22" stroke-width="2" fill="none" stroke-linecap="round"/>
    
    <!-- Dragon nostrils -->
    <circle cx="-5" cy="-12" r="1.5" fill="#228B22"/>
    <circle cx="5" cy="-12" r="1.5" fill="#228B22"/>
    
    <!-- Dragon spikes along back -->
    <path d="M-45,15 L-40,5 L-35,15" fill="#32CD32"/>
    <path d="M-25,10 L-20,0 L-15,10" fill="#32CD32"/>
    <path d="M-5,8 L0,-2 L5,8" fill="#32CD32"/>
    <path d="M15,10 L20,0 L25,10" fill="#32CD32"/>
    <path d="M35,15 L40,5 L45,15" fill="#32CD32"/>
    
    <!-- Dragon tail -->
    <path d="M55,25 Q85,15 80,50 Q70,45 65,30" fill="url(#dragonGradient)" stroke="#228B22" stroke-width="3"/>
    <path d="M75,45 L80,35 L85,45" fill="#32CD32"/>
    
    <!-- Treasure pile -->
    <g transform="translate(0,55)">
      <circle cx="-10" cy="0" r="4" fill="#FFD700" stroke="#DAA520" stroke-width="1"/>
      <circle cx="8" cy="-2" r="3" fill="#FFD700" stroke="#DAA520" stroke-width="1"/>
      <circle cx="0" cy="3" r="3" fill="#FFD700" stroke="#DAA520" stroke-width="1"/>
      <circle cx="15" cy="5" r="2" fill="#FFD700" stroke="#DAA520" stroke-width="1"/>
      <path d="M-5,-5 L0,-10 L5,-5 L3,-2 L-3,-2 Z" fill="#FF6347" stroke="#CD5C5C" stroke-width="1"/>
    </g>
    
    <!-- Sparkles around dragon -->
    <use xlink:href="#sparkle" x="-70" y="-50" transform="scale(0.7)"/>
    <use xlink:href="#sparkle" x="70" y="-30" transform="scale(0.5)"/>
    <use xlink:href="#sparkle" x="-50" y="70" transform="scale(0.6)"/>
    
    <!-- Floating animation -->
    <animateTransform attributeName="transform" type="translate" values="500,150; 500,145; 500,150" dur="3.5s" repeatCount="indefinite"/>
    
    <!-- Character label -->
    <text x="0" y="110" text-anchor="middle" font-family="Arial, sans-serif" font-size="14" font-weight="bold" fill="#228B22">Ruby the Dragon</text>
    <text x="0" y="125" text-anchor="middle" font-family="Arial, sans-serif" font-size="10" fill="#196619">Treasure Guardian</text>
  </g>
  
  <!-- Purple Wizard -->
  <g id="purple-wizard" transform="translate(800,150)">
    <!-- Wizard robe -->
    <path d="M0,70 L-35,70 L-30,15 Q-30,-15 0,-20 Q30,-15 30,15 L35,70 Z" fill="url(#wizardGradient)" stroke="#5B21B6" stroke-width="3"/>
    
    <!-- Wizard head -->
    <circle cx="0" cy="-10" r="20" fill="#FDE68A" stroke="#92400E" stroke-width="2"/>
    
    <!-- Wizard hat -->
    <path d="M-18,-25 Q0,-60 18,-25 Q12,-35 0,-45 Q-12,-35 -18,-25" fill="url(#wizardGradient)" stroke="#5B21B6" stroke-width="3"/>
    
    <!-- Hat star -->
    <use xlink:href="#sparkle" x="0" y="-50" transform="scale(0.8)"/>
    
    <!-- Hat brim -->
    <ellipse cx="0" cy="-25" rx="22" ry="6" fill="url(#wizardGradient)" stroke="#5B21B6" stroke-width="2"/>
    
    <!-- Wizard beard -->
    <path d="M-12,5 Q0,20 12,5 Q8,25 0,30 Q-8,25 -12,5" fill="#E5E7EB" stroke="#6B7280" stroke-width="2"/>
    
    <!-- Wizard eyes -->
    <circle cx="-6" cy="-13" r="3" fill="#FFFFFF"/>
    <circle cx="6" cy="-13" r="3" fill="#FFFFFF"/>
    <circle cx="-6" cy="-13" r="2" fill="#1F2937"/>
    <circle cx="6" cy="-13" r="2" fill="#1F2937"/>
    
    <!-- Wizard mustache -->
    <path d="M-8,-3 Q0,0 8,-3" stroke="#6B7280" stroke-width="2" fill="none" stroke-linecap="round"/>
    
    <!-- Magic wand -->
    <line x1="30" y1="-35" x2="30" y2="65" stroke="#8B4513" stroke-width="4"/>
    <circle cx="30" cy="-35" r="6" fill="#8B5CF6" stroke="#5B21B6" stroke-width="2" filter="url(#wandGlow)">
      <animate attributeName="r" values="6;9;6" dur="2s" repeatCount="indefinite"/>
      <animate attributeName="fill" values="#8B5CF6;#C4B5FD;#8B5CF6" dur="2s" repeatCount="indefinite"/>
    </circle>
    
    <!-- Magic sparkles around wand -->
    <use xlink:href="#sparkle" x="45" y="-45" transform="scale(0.4)"/>
    <use xlink:href="#sparkle" x="20" y="-25" transform="scale(0.3)"/>
    <use xlink:href="#sparkle" x="40" y="-15" transform="scale(0.5)"/>
    
    <!-- Wizard arms -->
    <ellipse cx="-20" cy="15" rx="6" ry="18" fill="#FDE68A" stroke="#92400E" stroke-width="2"/>
    <ellipse cx="20" cy="15" rx="6" ry="18" fill="#FDE68A" stroke="#92400E" stroke-width="2"/>
    
    <!-- Spell book -->
    <g transform="translate(-35,45) rotate(-10)">
      <rect x="0" y="0" width="15" height="20" fill="#8B4513" stroke="#654321" stroke-width="1" rx="2"/>
      <rect x="1" y="1" width="13" height="18" fill="#F3F4F6"/>
      <line x1="2" y1="4" x2="12" y2="4" stroke="#8B5CF6" stroke-width="1"/>
      <line x1="2" y1="7" x2="12" y2="7" stroke="#8B5CF6" stroke-width="1"/>
      <line x1="2" y1="10" x2="12" y2="10" stroke="#8B5CF6" stroke-width="1"/>
    </g>
    
    <!-- Floating animation -->
    <animateTransform attributeName="transform" type="translate" values="800,150; 800,145; 800,150" dur="4.5s" repeatCount="indefinite"/>
    
    <!-- Character label -->
    <text x="0" y="110" text-anchor="middle" font-family="Arial, sans-serif" font-size="14" font-weight="bold" fill="#5B21B6">Sage the Wizard</text>
    <text x="0" y="125" text-anchor="middle" font-family="Arial, sans-serif" font-size="10" fill="#3730A3">Master of Words</text>
  </g>
  
  <!-- Explorer Mouse -->
  <g id="explorer-mouse" transform="translate(1100,150)">
    <!-- Mouse body -->
    <ellipse cx="0" cy="15" rx="30" ry="22" fill="url(#mouseGradient)" stroke="#4B5563" stroke-width="2"/>
    
    <!-- Mouse head -->
    <circle cx="0" cy="-10" r="18" fill="url(#mouseGradient)" stroke="#4B5563" stroke-width="2"/>
    
    <!-- Mouse ears -->
    <circle cx="-15" cy="-20" r="10" fill="url(#mouseGradient)" stroke="#4B5563" stroke-width="2"/>
    <circle cx="15" cy="-20" r="10" fill="url(#mouseGradient)" stroke="#4B5563" stroke-width="2"/>
    <circle cx="-15" cy="-20" r="5" fill="#FCA5A5"/>
    <circle cx="15" cy="-20" r="5" fill="#FCA5A5"/>
    
    <!-- Mouse eyes -->
    <circle cx="-6" cy="-13" r="4" fill="#FFFFFF"/>
    <circle cx="6" cy="-13" r="4" fill="#FFFFFF"/>
    <circle cx="-6" cy="-13" r="2" fill="#000000"/>
    <circle cx="6" cy="-13" r="2" fill="#000000"/>
    <circle cx="-5" cy="-14" r="1" fill="#FFFFFF"/>
    <circle cx="7" cy="-14" r="1" fill="#FFFFFF"/>
    
    <!-- Mouse nose -->
    <circle cx="0" cy="-5" r="1.5" fill="#F87171"/>
    
    <!-- Mouse whiskers -->
    <line x1="-20" y1="-7" x2="-28" y2="-5" stroke="#4B5563" stroke-width="1"/>
    <line x1="-20" y1="-3" x2="-28" y2="-3" stroke="#4B5563" stroke-width="1"/>
    <line x1="20" y1="-7" x2="28" y2="-5" stroke="#4B5563" stroke-width="1"/>
    <line x1="20" y1="-3" x2="28" y2="-3" stroke="#4B5563" stroke-width="1"/>
    
    <!-- Explorer hat -->
    <ellipse cx="0" cy="-22" rx="16" ry="6" fill="#8B4513" stroke="#654321" stroke-width="1"/>
    <rect x="-14" y="-26" width="28" height="8" fill="#8B4513" stroke="#654321" stroke-width="1" rx="2"/>
    
    <!-- Explorer backpack -->
    <rect x="-25" y="5" width="12" height="16" fill="#059669" stroke="#047857" stroke-width="2" rx="2"/>
    <rect x="-23" y="7" width="8" height="2" fill="#10B981"/>
    <rect x="-23" y="11" width="8" height="2" fill="#10B981"/>
    <circle cx="-19" cy="17" r="2" fill="#047857"/>
    
    <!-- Map in paws -->
    <g transform="translate(20,25) rotate(10)">
      <rect x="0" y="0" width="12" height="10" fill="#FEF3C7" stroke="#92400E" stroke-width="1"/>
      <line x1="2" y1="2" x2="10" y2="2" stroke="#059669" stroke-width="1"/>
      <line x1="2" y1="4" x2="8" y2="4" stroke="#DC2626" stroke-width="1"/>
      <line x1="2" y1="6" x2="10" y2="6" stroke="#3B82F6" stroke-width="1"/>
      <circle cx="8" cy="8" r="1" fill="#DC2626"/>
    </g>
    
    <!-- Mouse tail -->
    <path d="M30,20 Q50,30 45,55 Q40,50 35,35" stroke="#4B5563" stroke-width="3" fill="none" stroke-linecap="round"/>
    
    <!-- Compass -->
    <g transform="translate(35,5)">
      <circle cx="0" cy="0" r="5" fill="#FFD700" stroke="#DAA520" stroke-width="1"/>
      <line x1="0" y1="-3" x2="0" y2="3" stroke="#DC2626" stroke-width="2"/>
      <line x1="-3" y1="0" x2="3" y2="0" stroke="#DC2626" stroke-width="1"/>
      <circle cx="0" cy="0" r="1" fill="#DC2626"/>
    </g>
    
    <!-- Adventure sparkles -->
    <use xlink:href="#sparkle" x="-45" y="-35" transform="scale(0.4)"/>
    <use xlink:href="#sparkle" x="45" y="-15" transform="scale(0.3)"/>
    <use xlink:href="#sparkle" x="-35" y="55" transform="scale(0.5)"/>
    
    <!-- Floating animation -->
    <animateTransform attributeName="transform" type="translate" values="1100,150; 1100,145; 1100,150" dur="3s" repeatCount="indefinite"/>
    
    <!-- Character label -->
    <text x="0" y="110" text-anchor="middle" font-family="Arial, sans-serif" font-size="14" font-weight="bold" fill="#4B5563">Scout the Explorer</text>
    <text x="0" y="125" text-anchor="middle" font-family="Arial, sans-serif" font-size="10" fill="#374151">Nature Detective</text>
  </g>
  
  <!-- Player Avatars (3 skin tone variations) -->
  <g id="player-avatars" transform="translate(0,350)">
    <!-- Player Avatar 1 - Light Skin -->
    <g id="player-light" transform="translate(150,0)">
      <circle cx="0" cy="0" r="25" fill="url(#skinTone1)" stroke="#F87171" stroke-width="2"/>
      <!-- Hair options -->
      <path d="M-20,-15 Q0,-35 20,-15 Q15,-25 0,-30 Q-15,-25 -20,-15" fill="#8B4513" id="hair-brown"/>
      <circle cx="-8" cy="-5" r="3" fill="#FFFFFF"/>
      <circle cx="8" cy="-5" r="3" fill="#FFFFFF"/>
      <circle cx="-8" cy="-5" r="2" fill="#1F2937"/>
      <circle cx="8" cy="-5" r="2" fill="#1F2937"/>
      <path d="M-5,5 Q0,10 5,5" stroke="#F87171" stroke-width="2" fill="none"/>
      <text x="0" y="50" text-anchor="middle" font-family="Arial, sans-serif" font-size="10" fill="#1F2937">Light Skin</text>
    </g>
    
    <!-- Player Avatar 2 - Medium Skin -->
    <g id="player-medium" transform="translate(350,0)">
      <circle cx="0" cy="0" r="25" fill="url(#skinTone2)" stroke="#F59E0B" stroke-width="2"/>
      <path d="M-20,-15 Q0,-35 20,-15 Q15,-25 0,-30 Q-15,-25 -20,-15" fill="#1F2937"/>
      <circle cx="-8" cy="-5" r="3" fill="#FFFFFF"/>
      <circle cx="8" cy="-5" r="3" fill="#FFFFFF"/>
      <circle cx="-8" cy="-5" r="2" fill="#1F2937"/>
      <circle cx="8" cy="-5" r="2" fill="#1F2937"/>
      <path d="M-5,5 Q0,10 5,5" stroke="#F59E0B" stroke-width="2" fill="none"/>
      <text x="0" y="50" text-anchor="middle" font-family="Arial, sans-serif" font-size="10" fill="#1F2937">Medium Skin</text>
    </g>
    
    <!-- Player Avatar 3 - Dark Skin -->
    <g id="player-dark" transform="translate(550,0)">
      <circle cx="0" cy="0" r="25" fill="url(#skinTone3)" stroke="#92400E" stroke-width="2"/>
      <path d="M-20,-15 Q0,-35 20,-15 Q15,-25 0,-30 Q-15,-25 -20,-15" fill="#000000"/>
      <circle cx="-8" cy="-5" r="3" fill="#FFFFFF"/>
      <circle cx="8" cy="-5" r="3" fill="#FFFFFF"/>
      <circle cx="-8" cy="-5" r="2" fill="#1F2937"/>
      <circle cx="8" cy="-5" r="2" fill="#1F2937"/>
      <path d="M-5,5 Q0,10 5,5" stroke="#92400E" stroke-width="2" fill="none"/>
      <text x="0" y="50" text-anchor="middle" font-family="Arial, sans-serif" font-size="10" fill="#1F2937">Dark Skin</text>
    </g>
    
    <!-- Hair Style Variations -->
    <g id="hair-variations" transform="translate(800,0)">
      <text x="0" y="-20" text-anchor="middle" font-family="Arial, sans-serif" font-size="12" font-weight="bold" fill="#1F2937">Hair Options</text>
      
      <!-- Short hair -->
      <g transform="translate(-80,0)">
        <circle cx="0" cy="0" r="20" fill="#F3F4F6" stroke="#D1D5DB" stroke-width="1"/>
        <path d="M-15,-10 Q0,-25 15,-10 Q10,-20 0,-25 Q-10,-20 -15,-10" fill="#FBBF24"/>
        <text x="0" y="35" text-anchor="middle" font-family="Arial, sans-serif" font-size="8" fill="#1F2937">Short</text>
      </g>
      
      <!-- Long hair -->
      <g transform="translate(0,0)">
        <circle cx="0" cy="0" r="20" fill="#F3F4F6" stroke="#D1D5DB" stroke-width="1"/>
        <path d="M-15,-10 Q0,-25 15,-10 Q20,0 15,20 Q0,15 -15,20 Q-20,0 -15,-10" fill="#DC2626"/>
        <text x="0" y="35" text-anchor="middle" font-family="Arial, sans-serif" font-size="8" fill="#1F2937">Long</text>
      </g>
      
      <!-- Curly hair -->
      <g transform="translate(80,0)">
        <circle cx="0" cy="0" r="20" fill="#F3F4F6" stroke="#D1D5DB" stroke-width="1"/>
        <circle cx="-8" cy="-15" r="5" fill="#8B4513"/>
        <circle cx="8" cy="-15" r="5" fill="#8B4513"/>
        <circle cx="0" cy="-20" r="6" fill="#8B4513"/>
        <circle cx="-12" cy="-8" r="4" fill="#8B4513"/>
        <circle cx="12" cy="-8" r="4" fill="#8B4513"/>
        <text x="0" y="35" text-anchor="middle" font-family="Arial, sans-serif" font-size="8" fill="#1F2937">Curly</text>
      </g>
    </g>
  </g>
  
  <!-- Background magical elements -->
  <g id="background-magic" opacity="0.2">
    <!-- Floating books -->
    <g transform="translate(100,400)">
      <rect x="0" y="0" width="15" height="20" fill="#60A5FA" stroke="#1D4ED8" stroke-width="1" rx="2">
        <animateTransform attributeName="transform" type="rotate" values="0 7.5 10; 10 7.5 10; 0 7.5 10" dur="6s" repeatCount="indefinite"/>
      </rect>
      <line x1="3" y1="4" x2="12" y2="4" stroke="#1D4ED8" stroke-width="1"/>
      <line x1="3" y1="8" x2="12" y2="8" stroke="#1D4ED8" stroke-width="1"/>
      <line x1="3" y1="12" x2="12" y2="12" stroke="#1D4ED8" stroke-width="1"/>
    </g>
    
    <!-- Floating quill -->
    <g transform="translate(1400,450)">
      <path d="M0,0 Q5,-20 10,-25 Q8,-23 5,-22 Q3,-15 0,0" fill="#8B4513"/>
      <path d="M0,0 L-3,5 L3,5 Z" fill="#FFD700"/>
      <animateTransform attributeName="transform" type="translate" values="1400,450; 1400,440; 1400,450" dur="4s" repeatCount="indefinite"/>
    </g>
    
    <!-- Magical swirls -->
    <path d="M50,200 Q100,150 150,200 Q200,250 250,200" stroke="#8B5CF6" stroke-width="2" fill="none" opacity="0.3">
      <animate attributeName="stroke-dasharray" values="0,100; 50,50; 100,0; 0,100" dur="8s" repeatCount="indefinite"/>
    </path>
    
    <path d="M1200,300 Q1250,250 1300,300 Q1350,350 1400,300" stroke="#10B981" stroke-width="2" fill="none" opacity="0.3">
      <animate attributeName="stroke-dasharray" values="0,100; 50,50; 100,0; 0,100" dur="8s" begin="2s" repeatCount="indefinite"/>
    </path>
  </g>
</svg>