<?xml version="1.0" encoding="UTF-8"?>
<svg xmlns="http://www.w3.org/2000/svg" xmlns:xlink="http://www.w3.org/1999/xlink" width="1400" height="800" viewBox="0 0 1400 800">
  <defs>
    <!-- UI Gradients -->
    <linearGradient id="buttonGradient" x1="0%" y1="0%" x2="100%" y2="100%">
      <stop offset="0%" style="stop-color:#8B5CF6;stop-opacity:1" />
      <stop offset="50%" style="stop-color:#A78BFA;stop-opacity:1" />
      <stop offset="100%" style="stop-color:#C4B5FD;stop-opacity:1" />
    </linearGradient>
    
    <linearGradient id="progressGradient" x1="0%" y1="0%" x2="100%" y2="0%">
      <stop offset="0%" style="stop-color:#FCD34D;stop-opacity:1" />
      <stop offset="50%" style="stop-color:#F59E0B;stop-opacity:1" />
      <stop offset="100%" style="stop-color:#D97706;stop-opacity:1" />
    </linearGradient>
    
    <linearGradient id="starGradient" x1="0%" y1="0%" x2="100%" y2="100%">
      <stop offset="0%" style="stop-color:#FBBF24;stop-opacity:1" />
      <stop offset="100%" style="stop-color:#F59E0B;stop-opacity:1" />
    </linearGradient>
    
    <linearGradient id="bagGradient" x1="0%" y1="0%" x2="100%" y2="100%">
      <stop offset="0%" style="stop-color:#8B4513;stop-opacity:1" />
      <stop offset="100%" style="stop-color:#A0522D;stop-opacity:1" />
    </linearGradient>
    
    <!-- Glow effects -->
    <filter id="glow">
      <feGaussianBlur stdDeviation="4" result="coloredBlur"/>
      <feMerge> 
        <feMergeNode in="coloredBlur"/>
        <feMergeNode in="SourceGraphic"/>
      </feMerge>
    </filter>
    
    <filter id="shadow">
      <feDropShadow dx="2" dy="4" stdDeviation="3" flood-color="#00000040"/>
    </filter>
  </defs>
  
  <!-- Choice Buttons (Book-shaped) -->
  <g id="choice-buttons" transform="translate(50,50)">
    <text x="100" y="20" text-anchor="middle" font-family="Arial, sans-serif" font-size="16" font-weight="bold" fill="#8B5CF6">Choice Buttons</text>
    
    <!-- Normal Choice Button -->
    <g id="choice-button-normal" transform="translate(0,40)">
      <path d="M10,10 L180,10 Q190,10 190,20 L190,50 Q190,60 180,60 L20,60 Q10,60 10,50 L10,20 Q10,10 20,10 Z" 
            fill="url(#buttonGradient)" stroke="#5B21B6" stroke-width="2" filter="url(#shadow)"/>
      
      <!-- Book spine effect -->
      <rect x="10" y="10" width="8" height="50" fill="#7C3AED" rx="4"/>
      <line x1="22" y1="15" x2="22" y2="55" stroke="#5B21B6" stroke-width="1"/>
      
      <!-- Book pages effect -->
      <rect x="25" y="15" width="150" height="40" fill="#F3F4F6" stroke="#E5E7EB" stroke-width="1" rx="2"/>
      <line x1="30" y1="25" x2="165" y2="25" stroke="#6B7280" stroke-width="1"/>
      <line x1="30" y1="35" x2="155" y2="35" stroke="#6B7280" stroke-width="1"/>
      <line x1="30" y1="45" x2="170" y2="45" stroke="#6B7280" stroke-width="1"/>
      
      <text x="100" y="80" text-anchor="middle" font-family="Arial, sans-serif" font-size="10" fill="#374151">Normal Choice</text>
    </g>
    
    <!-- Hover Choice Button -->
    <g id="choice-button-hover" transform="translate(220,40)">
      <path d="M10,10 L180,10 Q190,10 190,20 L190,50 Q190,60 180,60 L20,60 Q10,60 10,50 L10,20 Q10,10 20,10 Z" 
            fill="url(#buttonGradient)" stroke="#5B21B6" stroke-width="3" filter="url(#glow)" 
            transform="scale(1.05)" transform-origin="100 35"/>
      
      <rect x="8" y="8" width="8" height="50" fill="#7C3AED" rx="4"/>
      <line x1="20" y1="13" x2="20" y2="53" stroke="#5B21B6" stroke-width="1"/>
      
      <rect x="23" y="13" width="150" height="40" fill="#F3F4F6" stroke="#E5E7EB" stroke-width="1" rx="2"/>
      <line x1="28" y1="23" x2="163" y2="23" stroke="#6B7280" stroke-width="1"/>
      <line x1="28" y1="33" x2="153" y2="33" stroke="#6B7280" stroke-width="1"/>
      <line x1="28" y1="43" x2="168" y2="43" stroke="#6B7280" stroke-width="1"/>
      
      <!-- Glow sparkles -->
      <circle cx="15" cy="20" r="2" fill="#FBBF24" opacity="0.8">
        <animate attributeName="opacity" values="0.3;1;0.3" dur="1s" repeatCount="indefinite"/>
      </circle>
      <circle cx="185" cy="50" r="1.5" fill="#FBBF24" opacity="0.8">
        <animate attributeName="opacity" values="0.5;1;0.5" dur="1.2s" repeatCount="indefinite"/>
      </circle>
      
      <text x="100" y="80" text-anchor="middle" font-family="Arial, sans-serif" font-size="10" fill="#374151">Hover State</text>
    </g>
  </g>
  
  <!-- Star Rating Display -->
  <g id="star-rating" transform="translate(50,200)">
    <text x="150" y="20" text-anchor="middle" font-family="Arial, sans-serif" font-size="16" font-weight="bold" fill="#8B5CF6">Star Rating System</text>
    
    <!-- 5-Star Display -->
    <g id="five-stars" transform="translate(0,40)">
      <!-- Star 1 - Filled -->
      <path d="M20,10 L25,20 L35,20 L27,27 L30,37 L20,32 L10,37 L13,27 L5,20 L15,20 Z" 
            fill="url(#starGradient)" stroke="#D97706" stroke-width="1" filter="url(#glow)"/>
      
      <!-- Star 2 - Filled -->
      <path d="M60,10 L65,20 L75,20 L67,27 L70,37 L60,32 L50,37 L53,27 L45,20 L55,20 Z" 
            fill="url(#starGradient)" stroke="#D97706" stroke-width="1" filter="url(#glow)"/>
      
      <!-- Star 3 - Filled -->
      <path d="M100,10 L105,20 L115,20 L107,27 L110,37 L100,32 L90,37 L93,27 L85,20 L95,20 Z" 
            fill="url(#starGradient)" stroke="#D97706" stroke-width="1" filter="url(#glow)"/>
      
      <!-- Star 4 - Half Filled -->
      <defs>
        <clipPath id="halfClip">
          <rect x="140" y="10" width="15" height="27"/>
        </clipPath>
      </defs>
      <path d="M140,10 L145,20 L155,20 L147,27 L150,37 L140,32 L130,37 L133,27 L125,20 L135,20 Z" 
            fill="#E5E7EB" stroke="#9CA3AF" stroke-width="1"/>
      <path d="M140,10 L145,20 L155,20 L147,27 L150,37 L140,32 L130,37 L133,27 L125,20 L135,20 Z" 
            fill="url(#starGradient)" stroke="#D97706" stroke-width="1" clip-path="url(#halfClip)"/>
      
      <!-- Star 5 - Empty -->
      <path d="M180,10 L185,20 L195,20 L187,27 L190,37 L180,32 L170,37 L173,27 L165,20 L175,20 Z" 
            fill="#E5E7EB" stroke="#9CA3AF" stroke-width="1"/>
      
      <text x="100" y="60" text-anchor="middle" font-family="Arial, sans-serif" font-size="12" fill="#374151">3.5 / 5 Stars</text>
    </g>
    
    <!-- Star Counter -->
    <g id="star-counter" transform="translate(250,40)">
      <rect x="0" y="0" width="100" height="30" fill="#FEF3C7" stroke="#F59E0B" stroke-width="2" rx="15"/>
      <path d="M15,8 L18,14 L25,14 L20,18 L22,25 L15,22 L8,25 L10,18 L5,14 L12,14 Z" 
            fill="url(#starGradient)" stroke="#D97706" stroke-width="1"/>
      <text x="60" y="20" text-anchor="middle" font-family="Arial, sans-serif" font-size="14" font-weight="bold" fill="#92400E">47</text>
      
      <text x="50" y="55" text-anchor="middle" font-family="Arial, sans-serif" font-size="10" fill="#374151">Stars Collected</text>
    </g>
  </g>
  
  <!-- Progress Bar -->
  <g id="progress-bar" transform="translate(50,350)">
    <text x="200" y="20" text-anchor="middle" font-family="Arial, sans-serif" font-size="16" font-weight="bold" fill="#8B5CF6">Progress Bar</text>
    
    <!-- Progress Bar Container -->
    <rect x="0" y="40" width="400" height="20" fill="#E5E7EB" stroke="#9CA3AF" stroke-width="2" rx="10"/>
    
    <!-- Progress Fill (65% complete) -->
    <rect x="2" y="42" width="256" height="16" fill="url(#progressGradient)" rx="8">
      <animate attributeName="width" values="0;256;256" dur="3s" repeatCount="indefinite"/>
    </rect>
    
    <!-- Progress Text -->
    <text x="200" y="54" text-anchor="middle" font-family="Arial, sans-serif" font-size="12" font-weight="bold" fill="#FFFFFF">65%</text>
    
    <!-- Progress Milestones -->
    <circle cx="100" cy="50" r="6" fill="#22C55E" stroke="#FFFFFF" stroke-width="2"/>
    <circle cx="200" cy="50" r="6" fill="#22C55E" stroke="#FFFFFF" stroke-width="2"/>
    <circle cx="300" cy="50" r="6" fill="#F59E0B" stroke="#FFFFFF" stroke-width="2"/>
    <circle cx="400" cy="50" r="6" fill="#E5E7EB" stroke="#9CA3AF" stroke-width="2"/>
    
    <text x="200" y="85" text-anchor="middle" font-family="Arial, sans-serif" font-size="10" fill="#374151">Quest Progress</text>
  </g>
  
  <!-- Inventory Bag -->
  <g id="inventory-bag" transform="translate(550,50)">
    <text x="75" y="20" text-anchor="middle" font-family="Arial, sans-serif" font-size="16" font-weight="bold" fill="#8B5CF6">Inventory Bag</text>
    
    <!-- Bag Body -->
    <path d="M20,50 Q15,45 20,40 L130,40 Q135,45 130,50 L140,120 Q140,140 120,140 L30,140 Q10,140 10,120 Z" 
          fill="url(#bagGradient)" stroke="#654321" stroke-width="3" filter="url(#shadow)"/>
    
    <!-- Bag Drawstring -->
    <ellipse cx="75" cy="45" rx="55" ry="8" fill="#8B4513" stroke="#654321" stroke-width="2"/>
    <rect x="65" y="35" width="20" height="15" fill="#A0522D" stroke="#8B4513" stroke-width="1" rx="3"/>
    
    <!-- Bag Cord -->
    <path d="M30,45 Q20,35 25,30" stroke="#654321" stroke-width="3" fill="none"/>
    <path d="M120,45 Q130,35 125,30" stroke="#654321" stroke-width="3" fill="none"/>
    
    <!-- Items in bag (visible through opening) -->
    <circle cx="60" cy="65" r="8" fill="#FFD700" stroke="#DAA520" stroke-width="1"/>
    <path d="M85,60 L90,55 L95,60 L93,70 L87,70 Z" fill="#DC2626" stroke="#B91C1C" stroke-width="1"/>
    <rect x="100" y="70" width="12" height="8" fill="#3B82F6" stroke="#1D4ED8" stroke-width="1" rx="2"/>
    
    <!-- Shine effect -->
    <ellipse cx="45" cy="75" rx="8" ry="15" fill="#FFFFFF" opacity="0.3"/>
    
    <text x="75" y="170" text-anchor="middle" font-family="Arial, sans-serif" font-size="10" fill="#374151">Magic Items</text>
  </g>
  
  <!-- Hint Lightbulb -->
  <g id="hint-lightbulb" transform="translate(750,50)">
    <text x="50" y="20" text-anchor="middle" font-family="Arial, sans-serif" font-size="16" font-weight="bold" fill="#8B5CF6">Hint System</text>
    
    <!-- Normal Lightbulb -->
    <g id="lightbulb-normal" transform="translate(0,40)">
      <circle cx="30" cy="40" r="20" fill="#FEF3C7" stroke="#F59E0B" stroke-width="2"/>
      <rect x="25" y="55" width="10" height="8" fill="#9CA3AF" stroke="#6B7280" stroke-width="1"/>
      <rect x="22" y="63" width="16" height="5" fill="#374151" rx="2"/>
      
      <!-- Filament -->
      <path d="M20,35 Q30,30 40,35 M18,40 Q30,45 42,40" stroke="#F59E0B" stroke-width="1" fill="none"/>
      
      <text x="30" y="85" text-anchor="middle" font-family="Arial, sans-serif" font-size="10" fill="#374151">Available</text>
    </g>
    
    <!-- Glowing Lightbulb -->
    <g id="lightbulb-glow" transform="translate(80,40)">
      <circle cx="30" cy="40" r="22" fill="#FBBF24" stroke="#F59E0B" stroke-width="2" filter="url(#glow)">
        <animate attributeName="r" values="20;25;20" dur="2s" repeatCount="indefinite"/>
      </circle>
      <rect x="25" y="55" width="10" height="8" fill="#9CA3AF" stroke="#6B7280" stroke-width="1"/>
      <rect x="22" y="63" width="16" height="5" fill="#374151" rx="2"/>
      
      <!-- Bright filament -->
      <path d="M20,35 Q30,30 40,35 M18,40 Q30,45 42,40" stroke="#FFFFFF" stroke-width="2" fill="none"/>
      
      <!-- Light rays -->
      <path d="M15,25 L10,20 M45,25 L50,20 M15,55 L10,60 M45,55 L50,60 M8,40 L3,40 M52,40 L57,40" 
            stroke="#FBBF24" stroke-width="2" opacity="0.8"/>
      
      <text x="30" y="85" text-anchor="middle" font-family="Arial, sans-serif" font-size="10" fill="#374151">Active Hint</text>
    </g>
  </g>
  
  <!-- Puzzle Tiles -->
  <g id="puzzle-tiles" transform="translate(50,500)">
    <text x="200" y="20" text-anchor="middle" font-family="Arial, sans-serif" font-size="16" font-weight="bold" fill="#8B5CF6">Puzzle Tiles</text>
    
    <!-- Number Tiles -->
    <g id="number-tiles" transform="translate(0,40)">
      <text x="75" y="0" text-anchor="middle" font-family="Arial, sans-serif" font-size="12" font-weight="bold" fill="#374151">Numbers</text>
      
      <!-- Number 1 -->
      <rect x="10" y="10" width="30" height="30" fill="#FEF3C7" stroke="#F59E0B" stroke-width="2" rx="5"/>
      <text x="25" y="30" text-anchor="middle" font-family="Arial, sans-serif" font-size="18" font-weight="bold" fill="#92400E">1</text>
      
      <!-- Number 2 -->
      <rect x="50" y="10" width="30" height="30" fill="#DBEAFE" stroke="#3B82F6" stroke-width="2" rx="5"/>
      <text x="65" y="30" text-anchor="middle" font-family="Arial, sans-serif" font-size="18" font-weight="bold" fill="#1E40AF">2</text>
      
      <!-- Number 3 -->
      <rect x="90" y="10" width="30" height="30" fill="#DCFCE7" stroke="#22C55E" stroke-width="2" rx="5"/>
      <text x="105" y="30" text-anchor="middle" font-family="Arial, sans-serif" font-size="18" font-weight="bold" fill="#15803D">3</text>
    </g>
    
    <!-- Letter Tiles -->
    <g id="letter-tiles" transform="translate(160,40)">
      <text x="75" y="0" text-anchor="middle" font-family="Arial, sans-serif" font-size="12" font-weight="bold" fill="#374151">Letters</text>
      
      <!-- Letter A -->
      <rect x="10" y="10" width="30" height="30" fill="#FEE2E2" stroke="#EF4444" stroke-width="2" rx="5"/>
      <text x="25" y="30" text-anchor="middle" font-family="Arial, sans-serif" font-size="18" font-weight="bold" fill="#DC2626">A</text>
      
      <!-- Letter B -->
      <rect x="50" y="10" width="30" height="30" fill="#F3E8FF" stroke="#8B5CF6" stroke-width="2" rx="5"/>
      <text x="65" y="30" text-anchor="middle" font-family="Arial, sans-serif" font-size="18" font-weight="bold" fill="#7C3AED">B</text>
      
      <!-- Letter C -->
      <rect x="90" y="10" width="30" height="30" fill="#FEF3C7" stroke="#F59E0B" stroke-width="2" rx="5"/>
      <text x="105" y="30" text-anchor="middle" font-family="Arial, sans-serif" font-size="18" font-weight="bold" fill="#D97706">C</text>
    </g>
    
    <!-- Pattern Tiles -->
    <g id="pattern-tiles" transform="translate(320,40)">
      <text x="75" y="0" text-anchor="middle" font-family="Arial, sans-serif" font-size="12" font-weight="bold" fill="#374151">Patterns</text>
      
      <!-- Circle Pattern -->
      <rect x="10" y="10" width="30" height="30" fill="#F0F9FF" stroke="#0EA5E9" stroke-width="2" rx="5"/>
      <circle cx="25" cy="25" r="8" fill="#0EA5E9"/>
      
      <!-- Square Pattern -->
      <rect x="50" y="10" width="30" height="30" fill="#F7FEE7" stroke="#65A30D" stroke-width="2" rx="5"/>
      <rect x="60" y="20" width="10" height="10" fill="#65A30D"/>
      
      <!-- Triangle Pattern -->
      <rect x="90" y="10" width="30" height="30" fill="#FDF4FF" stroke="#D946EF" stroke-width="2" rx="5"/>
      <path d="M105,32 L98,20 L112,20 Z" fill="#D946EF"/>
    </g>
  </g>
  
  <!-- UI Decorative Elements -->
  <g id="decorative-elements" transform="translate(1000,200)">
    <text x="150" y="20" text-anchor="middle" font-family="Arial, sans-serif" font-size="16" font-weight="bold" fill="#8B5CF6">Decorative Elements</text>
    
    <!-- Scroll Frame -->
    <g id="scroll-frame" transform="translate(0,40)">
      <path d="M20,20 Q10,20 10,30 L10,80 Q10,90 20,90 L280,90 Q290,90 290,80 L290,30 Q290,20 280,20 Z" 
            fill="#FEF3C7" stroke="#92400E" stroke-width="3"/>
      
      <!-- Scroll rolls -->
      <circle cx="20" cy="55" r="12" fill="#D97706" stroke="#92400E" stroke-width="2"/>
      <circle cx="280" cy="55" r="12" fill="#D97706" stroke="#92400E" stroke-width="2"/>
      
      <!-- Scroll lines -->
      <line x1="15" y1="45" x2="15" y2="65" stroke="#92400E" stroke-width="2"/>
      <line x1="25" y1="45" x2="25" y2="65" stroke="#92400E" stroke-width="2"/>
      <line x1="275" y1="45" x2="275" y2="65" stroke="#92400E" stroke-width="2"/>
      <line x1="285" y1="45" x2="285" y2="65" stroke="#92400E" stroke-width="2"/>
      
      <!-- Content area -->
      <rect x="45" y="35" width="210" height="40" fill="#FFFFFF" opacity="0.8" rx="5"/>
      <text x="150" y="55" text-anchor="middle" font-family="serif" font-size="14" fill="#92400E">Ancient Scroll Frame</text>
      
      <text x="150" y="125" text-anchor="middle" font-family="Arial, sans-serif" font-size="10" fill="#374151">Message Container</text>
    </g>
    
    <!-- Magic Border -->
    <g id="magic-border" transform="translate(0,180)">
      <rect x="20" y="20" width="200" height="100" fill="#F3E8FF" stroke="#8B5CF6" stroke-width="3" rx="10"/>
      
      <!-- Corner decorations -->
      <circle cx="30" cy="30" r="5" fill="#A78BFA"/>
      <circle cx="210" cy="30" r="5" fill="#A78BFA"/>
      <circle cx="30" cy="110" r="5" fill="#A78BFA"/>
      <circle cx="210" cy="110" r="5" fill="#A78BFA"/>
      
      <!-- Animated sparkles -->
      <circle cx="50" cy="50" r="2" fill="#FBBF24">
        <animate attributeName="opacity" values="0.3;1;0.3" dur="1.5s" repeatCount="indefinite"/>
      </circle>
      <circle cx="190" cy="90" r="2" fill="#FBBF24">
        <animate attributeName="opacity" values="0.5;1;0.5" dur="2s" repeatCount="indefinite"/>
      </circle>
      <circle cx="120" cy="40" r="1.5" fill="#FBBF24">
        <animate attributeName="opacity" values="0.4;1;0.4" dur="1.8s" repeatCount="indefinite"/>
      </circle>
      
      <text x="120" y="75" text-anchor="middle" font-family="serif" font-size="12" fill="#7C3AED">Magical Frame</text>
      
      <text x="120" y="150" text-anchor="middle" font-family="Arial, sans-serif" font-size="10" fill="#374151">Content Border</text>
    </g>
  </g>
  
  <!-- Educational Icons -->
  <g id="educational-icons" transform="translate(1000,500)">
    <text x="150" y="20" text-anchor="middle" font-family="Arial, sans-serif" font-size="16" font-weight="bold" fill="#8B5CF6">Educational Icons</text>
    
    <!-- Math Icon -->
    <g id="math-icon" transform="translate(0,40)">
      <circle cx="30" cy="30" r="25" fill="#FEF3C7" stroke="#F59E0B" stroke-width="3"/>
      <text x="20" y="25" font-family="Arial, sans-serif" font-size="16" font-weight="bold" fill="#92400E">+</text>
      <text x="40" y="25" font-family="Arial, sans-serif" font-size="16" font-weight="bold" fill="#92400E">−</text>
      <text x="25" y="40" font-family="Arial, sans-serif" font-size="16" font-weight="bold" fill="#92400E">×</text>
      <text x="40" y="40" font-family="Arial, sans-serif" font-size="16" font-weight="bold" fill="#92400E">÷</text>
      
      <text x="30" y="75" text-anchor="middle" font-family="Arial, sans-serif" font-size="10" fill="#374151">Math</text>
    </g>
    
    <!-- Language Icon -->
    <g id="language-icon" transform="translate(80,40)">
      <circle cx="30" cy="30" r="25" fill="#F3E8FF" stroke="#8B5CF6" stroke-width="3"/>
      <text x="30" y="25" text-anchor="middle" font-family="serif" font-size="20" font-weight="bold" fill="#7C3AED">Aa</text>
      <path d="M15,40 Q30,45 45,40" stroke="#7C3AED" stroke-width="2" fill="none"/>
      
      <text x="30" y="75" text-anchor="middle" font-family="Arial, sans-serif" font-size="10" fill="#374151">Language</text>
    </g>
    
    <!-- Science Icon -->
    <g id="science-icon" transform="translate(160,40)">
      <circle cx="30" cy="30" r="25" fill="#ECFDF5" stroke="#10B981" stroke-width="3"/>
      <!-- Atom symbol -->
      <circle cx="30" cy="30" r="3" fill="#059669"/>
      <ellipse cx="30" cy="30" rx="15" ry="8" fill="none" stroke="#059669" stroke-width="2"/>
      <ellipse cx="30" cy="30" rx="8" ry="15" fill="none" stroke="#059669" stroke-width="2"/>
      <circle cx="18" cy="26" r="2" fill="#22C55E"/>
      <circle cx="42" cy="34" r="2" fill="#22C55E"/>
      <circle cx="30" cy="15" r="2" fill="#22C55E"/>
      <circle cx="30" cy="45" r="2" fill="#22C55E"/>
      
      <text x="30" y="75" text-anchor="middle" font-family="Arial, sans-serif" font-size="10" fill="#374151">Science</text>
    </g>
    
    <!-- Achievement Badge -->
    <g id="achievement-badge" transform="translate(240,40)">
      <circle cx="30" cy="30" r="25" fill="#FEF3C7" stroke="#F59E0B" stroke-width="3"/>
      <!-- Star shape -->
      <path d="M30,15 L33,24 L42,24 L36,30 L38,39 L30,35 L22,39 L24,30 L18,24 L27,24 Z" 
            fill="url(#starGradient)" stroke="#D97706" stroke-width="1"/>
      <!-- Ribbon -->
      <path d="M15,45 L30,40 L45,45 L42,55 L35,50 L30,52 L25,50 L18,55 Z" 
            fill="#DC2626" stroke="#B91C1C" stroke-width="1"/>
      
      <text x="30" y="75" text-anchor="middle" font-family="Arial, sans-serif" font-size="10" fill="#374151">Achievement</text>
    </g>
  </g>
  
  <!-- Frame Border -->
  <rect x="10" y="10" width="1380" height="780" fill="none" stroke="#8B5CF6" stroke-width="4" rx="20" opacity="0.5"/>
  
  <!-- Corner sparkles -->
  <circle cx="30" cy="30" r="3" fill="#FBBF24">
    <animate attributeName="opacity" values="0.3;1;0.3" dur="2s" repeatCount="indefinite"/>
  </circle>
  <circle cx="1370" cy="30" r="3" fill="#FBBF24">
    <animate attributeName="opacity" values="0.5;1;0.5" dur="2.2s" repeatCount="indefinite"/>
  </circle>
  <circle cx="30" cy="770" r="3" fill="#FBBF24">
    <animate attributeName="opacity" values="0.4;1;0.4" dur="1.8s" repeatCount="indefinite"/>
  </circle>
  <circle cx="1370" cy="770" r="3" fill="#FBBF24">
    <animate attributeName="opacity" values="0.6;1;0.6" dur="2.5s" repeatCount="indefinite"/>
  </circle>
</svg>
